<?xml version="1.0" standalone="no"?>
<!DOCTYPE svg PUBLIC "-//W3C//DTD SVG 20010904//EN"
 "http://www.w3.org/TR/2001/REC-SVG-20010904/DTD/svg10.dtd">
<svg version="1.0" xmlns="http://www.w3.org/2000/svg"
 width="537.000000pt" height="527.000000pt" viewBox="0 0 537.000000 527.000000"
 preserveAspectRatio="xMidYMid meet">

<g transform="translate(0.000000,527.000000) scale(0.100000,-0.100000)"
fill="#000000" stroke="none">
<path d="M2425 4995 c-266 -34 -561 -122 -792 -236 -139 -69 -353 -208 -484
-315 -175 -143 -398 -423 -503 -632 -206 -410 -276 -686 -276 -1086 0 -188 12
-295 50 -451 99 -403 314 -795 607 -1105 205 -218 582 -448 913 -557 274 -90
482 -126 735 -126 489 0 911 128 1325 402 465 307 819 810 961 1363 50 198 64
515 33 760 -23 186 -127 497 -243 725 -39 78 -162 275 -205 328 -18 22 -48 63
-66 90 -90 133 -335 352 -545 487 -124 79 -365 195 -506 242 -136 45 -352 94
-499 111 -140 17 -370 17 -505 0z m-249 -294 c94 -58 103 -189 18 -265 l-23
-21 8 -830 8 -830 -74 -72 c-41 -40 -76 -73 -78 -73 -3 0 -10 10 -16 23 -10
17 -12 225 -10 900 l2 878 -35 41 c-30 34 -36 49 -36 87 0 54 31 121 72 156
38 32 117 35 164 6z m651 -26 c54 -36 72 -109 39 -159 -9 -15 -37 -36 -60 -48
l-44 -21 -46 27 c-54 32 -80 75 -71 117 8 35 49 87 79 100 26 11 73 3 103 -16z
m504 -2 c67 -57 74 -140 15 -189 l-31 -27 -5 -296 -5 -296 27 -23 c35 -30 42
-54 28 -97 -12 -36 -78 -85 -113 -85 -9 0 -34 17 -57 38 -49 48 -54 93 -15
140 l25 30 0 295 c0 286 -1 296 -20 302 -59 19 -81 125 -38 181 36 46 50 53
105 54 42 0 58 -5 84 -27z m365 -192 c86 -39 135 -117 120 -191 -9 -45 -55
-108 -96 -131 l-37 -21 -6 -226 c-4 -124 -7 -345 -7 -492 l0 -267 35 -32 c31
-28 35 -37 35 -80 0 -58 -21 -89 -86 -127 -56 -33 -79 -28 -139 29 -42 41 -45
47 -45 95 0 40 5 57 26 81 14 17 32 31 40 31 12 0 14 76 14 500 l0 499 -29 15
c-15 8 -42 31 -60 51 -24 28 -31 45 -31 78 1 58 30 117 77 155 71 56 119 65
189 33z m-2173 -82 c43 -11 102 -59 121 -98 21 -41 29 -117 15 -143 -7 -13
-30 -43 -52 -68 l-39 -45 1 -1527 1 -1528 -22 0 c-14 0 -44 23 -80 60 l-58 59
-2 583 c-1 321 -2 790 -3 1043 0 253 -1 651 -3 885 l-2 425 -35 23 c-68 44
-89 108 -63 194 16 53 74 116 123 133 49 17 51 17 98 4z m334 -36 c5 -16 8
-812 8 -1771 0 -1929 6 -1781 -65 -1741 -19 11 -48 31 -65 45 l-30 24 1 1727
1 1728 44 6 c91 12 98 11 106 -18z m1120 -600 l1 -469 -170 -134 c-94 -74
-218 -175 -276 -225 -170 -145 -173 -148 -179 -142 -3 3 2 25 11 49 15 42 30
168 41 353 3 50 12 194 21 320 9 141 14 322 12 468 -2 130 0 238 5 240 4 1
125 3 270 5 l262 3 2 -468z m1334 260 c62 -53 78 -144 35 -202 -51 -69 -108
-90 -171 -62 -109 48 -127 193 -33 262 56 40 122 41 169 2z m-3054 -189 c24
-24 25 -29 17 -87 -10 -78 -12 -324 -14 -1550 l-2 -988 -21 3 c-11 2 -44 31
-73 65 -60 71 -60 67 -70 336 l-6 169 31 32 c46 47 75 135 74 226 0 83 -6 99
-61 163 l-38 44 0 780 c1 676 3 783 16 799 24 30 32 34 78 34 33 0 49 -6 69
-26z m-308 -230 c43 -25 76 -82 76 -130 0 -32 -7 -51 -31 -81 l-31 -38 -6
-490 c-3 -270 -10 -503 -15 -520 -8 -27 -13 -30 -50 -29 -23 0 -45 4 -49 7
-15 16 -22 116 -23 332 0 127 -5 332 -10 457 l-10 228 -39 39 c-45 45 -55 78
-41 130 24 88 151 141 229 95z m3094 -28 c42 -17 83 -66 98 -115 15 -50 -1
-100 -46 -145 l-33 -33 -7 -175 -8 -175 32 -13 c49 -20 71 -55 71 -112 0 -44
-5 -55 -44 -101 l-44 -52 21 -30 c22 -29 22 -32 27 -720 l5 -690 -65 -62 c-36
-34 -68 -63 -72 -63 -10 0 -11 81 -12 925 l-2 660 -37 49 c-32 42 -37 56 -37
102 0 41 5 59 25 82 l25 29 -7 175 -6 174 -48 34 c-55 40 -69 65 -69 122 0 38
6 47 55 95 50 48 59 53 100 53 25 0 60 -6 78 -14z m406 -290 c38 -20 91 -82
93 -109 5 -73 -7 -102 -68 -168 -50 -55 -55 -64 -54 -102 3 -63 2 -65 -22 -70
-20 -4 -20 -4 4 -6 21 -1 28 -7 34 -33 3 -18 3 -307 -1 -643 l-7 -610 -56 -60
c-31 -33 -62 -64 -69 -68 -11 -6 -13 132 -13 703 0 562 3 712 13 715 9 4 11
24 7 77 -5 61 -9 73 -30 87 -61 39 -80 67 -80 117 0 105 74 184 173 184 26 0
61 -7 76 -14z m-1305 -208 c-3 -51 -14 -152 -25 -225 -10 -72 -19 -146 -19
-164 0 -25 -11 -44 -54 -89 -34 -36 -58 -71 -65 -96 -13 -48 -41 -210 -41
-235 0 -18 17 -19 431 -19 l431 0 -7 -32 c-4 -18 -9 -122 -12 -230 l-4 -197
-717 -3 c-394 -2 -720 -1 -724 2 -4 3 -1 55 8 115 8 61 19 157 24 215 6 58 15
150 20 205 5 55 13 124 16 154 l7 54 -44 -6 c-40 -6 -42 -6 -24 8 11 8 47 37
80 64 186 153 266 218 409 331 88 69 191 151 230 182 39 31 74 57 78 58 4 0 5
-42 2 -92z m-2410 -4 c17 -17 19 -66 22 -524 0 -190 -2 -220 -18 -255 -22 -47
-124 -160 -132 -147 -15 24 -26 256 -25 522 1 311 7 396 30 411 24 15 106 11
123 -7z m3993 -130 c12 -3 25 -14 28 -24 8 -25 -13 -769 -25 -870 -5 -46 -15
-91 -22 -100 -81 -108 -104 -140 -113 -154 -7 -12 -10 112 -10 386 0 222 -3
474 -8 560 -7 151 -6 159 13 175 30 27 93 39 137 27z m-2546 -1141 c0 -340 1
-645 2 -678 1 -33 0 -133 -2 -222 -4 -184 2 -175 -88 -148 -94 28 -88 -14 -90
569 0 281 -2 612 -3 736 l-1 224 83 68 c46 37 87 68 91 68 5 0 8 -278 8 -617z
m-1174 412 c61 -41 83 -77 83 -135 0 -57 -21 -101 -66 -138 l-39 -32 -5 -182
c-3 -112 -9 -183 -15 -185 -6 -2 -27 14 -47 34 -36 38 -36 39 -42 143 -3 58
-5 124 -6 148 0 23 -5 42 -11 42 -13 0 -44 35 -66 75 -42 76 -5 211 67 247 53
27 89 22 147 -17z m1993 -705 l118 -120 42 15 c24 8 66 15 95 15 43 0 60 -5
85 -26 63 -53 75 -116 39 -191 -31 -65 -80 -98 -145 -98 -45 0 -57 4 -84 30
-18 17 -43 47 -56 68 -17 26 -41 45 -77 61 -53 23 -166 135 -298 295 l-52 64
49 -5 c27 -3 69 -2 94 2 25 4 51 8 58 9 8 0 67 -53 132 -119z m-513 28 c34
-35 94 -101 134 -147 159 -182 218 -244 335 -350 66 -60 133 -127 148 -149 26
-38 27 -42 12 -64 -8 -13 -40 -38 -69 -56 -70 -42 -81 -37 -170 75 -83 106
-433 489 -543 594 -80 78 -113 123 -100 136 4 4 41 10 84 14 42 3 84 7 93 7 8
1 43 -26 76 -60z m1220 6 c64 -41 74 -129 23 -187 l-30 -35 0 -204 0 -204 -56
-32 c-31 -18 -60 -32 -66 -32 -7 0 -9 84 -7 243 l4 242 -33 32 c-22 22 -32 41
-32 63 0 83 62 146 135 135 22 -3 50 -13 62 -21z m-1298 -424 c19 -5 45 -20
58 -32 33 -31 104 -131 137 -193 14 -27 42 -72 61 -99 61 -84 43 -131 -51
-131 -49 0 -56 3 -99 45 -26 25 -66 72 -90 105 -24 33 -65 80 -90 105 -69 66
-136 185 -119 211 8 13 136 6 193 -11z"/>
<path d="M1730 935 c0 -7 58 -35 72 -35 7 0 2 6 -12 13 -34 18 -60 27 -60 22z"/>
<path d="M925 4625 c-114 -84 -104 -76 -170 -151 -27 -31 -66 -73 -85 -93 -55
-56 -190 -228 -245 -311 -209 -319 -361 -780 -405 -1229 -15 -152 -12 -440 5
-553 52 -344 209 -725 450 -1088 162 -244 428 -511 583 -585 66 -31 158 -89
172 -107 3 -3 19 -10 35 -14 17 -4 59 -22 94 -40 35 -19 68 -34 72 -34 4 0 45
-17 91 -39 46 -21 110 -48 143 -61 33 -12 69 -26 80 -31 155 -61 290 -96 490
-128 276 -44 787 -26 1111 39 167 34 197 42 271 76 28 13 78 32 110 42 32 11
86 34 120 51 34 17 65 31 68 31 15 0 93 41 105 55 7 8 16 15 20 15 4 0 49 27
98 60 50 33 94 60 99 60 4 0 21 11 38 25 16 14 52 39 80 55 28 16 60 39 70 50
10 11 26 20 37 20 10 0 18 3 18 8 0 4 20 21 45 37 24 17 45 33 45 38 0 4 5 7
12 7 7 0 -6 -19 -27 -42 l-40 -41 36 27 c87 64 298 325 423 525 83 132 197
356 246 484 28 73 63 193 95 327 58 238 60 719 3 995 -44 217 -135 482 -230
670 -79 157 -96 186 -195 335 -151 225 -238 334 -252 312 -5 -9 -12 -7 -26 8
-10 11 -22 20 -27 20 -5 0 13 -26 40 -57 63 -73 206 -270 254 -348 175 -292
273 -529 337 -821 72 -331 66 -690 -19 -1069 -16 -73 -80 -267 -117 -355 -121
-289 -309 -572 -533 -804 -233 -241 -442 -393 -735 -536 -147 -71 -178 -83
-390 -149 -165 -51 -180 -55 -415 -87 -172 -23 -217 -26 -380 -21 -192 5 -386
30 -530 69 -41 11 -100 26 -130 34 -331 85 -723 300 -1001 549 -200 179 -373
395 -529 659 -164 278 -291 692 -321 1051 -12 145 -5 388 16 563 62 505 381
1103 779 1461 105 95 122 111 113 111 -1 0 -47 -34 -102 -75z"/>
<path d="M450 1556 c0 -2 8 -10 18 -17 15 -13 16 -12 3 4 -13 16 -21 21 -21
13z"/>
<path d="M609 1320 c16 -25 55 -70 87 -100 l58 -55 -49 55 c-28 30 -67 75 -88
100 l-38 45 30 -45z"/>
<path d="M1020 1106 c0 -2 8 -10 18 -17 15 -13 16 -12 3 4 -13 16 -21 21 -21
13z"/>
<path d="M1080 1047 c0 -2 15 -16 33 -33 l32 -29 -29 33 c-28 30 -36 37 -36
29z"/>
<path d="M4200 975 c-36 -30 -95 -76 -133 -101 -67 -46 -106 -83 -51 -48 83
53 272 203 254 203 -3 0 -34 -25 -70 -54z"/>
<path d="M1185 955 c39 -35 75 -60 75 -52 0 3 -26 23 -57 46 -55 40 -56 40
-18 6z"/>
<path d="M1334 852 c8 -13 116 -85 121 -80 3 2 -25 23 -61 46 -36 23 -63 38
-60 34z"/>
<path d="M1080 847 c0 -2 15 -16 33 -33 l32 -29 -29 33 c-28 30 -36 37 -36 29z"/>
<path d="M4192 780 c-45 -34 -85 -66 -89 -73 -4 -7 9 0 28 14 121 90 149 112
149 115 0 8 -9 2 -88 -56z"/>
<path d="M3895 762 c-148 -88 -408 -201 -530 -229 -38 -9 -62 -19 -52 -21 10
-2 32 1 49 7 41 15 71 14 62 -1 -4 -7 -3 -8 5 -4 6 4 9 11 6 16 -3 4 26 19 63
33 138 53 369 159 382 176 3 4 26 19 53 34 39 23 56 37 45 37 -2 0 -39 -21
-83 -48z"/>
<path d="M1172 768 c30 -26 88 -62 88 -55 0 2 -26 21 -57 41 -32 20 -46 27
-31 14z"/>
<path d="M1450 760 c-12 -8 -11 -10 8 -10 13 0 22 -6 22 -16 0 -8 -4 -13 -9
-9 -5 3 -12 1 -16 -5 -4 -6 4 -9 19 -8 15 1 26 6 26 11 0 21 28 -16 34 -43 4
-21 11 -30 26 -30 22 0 26 10 9 27 -9 9 -7 10 10 6 11 -3 21 -10 21 -15 0 -16
-25 -36 -50 -40 -13 -1 -25 -9 -28 -17 -3 -8 0 -11 6 -7 5 3 12 0 15 -8 4 -10
18 -12 51 -9 49 6 58 -5 32 -39 -14 -19 -42 -26 -31 -8 3 6 -1 10 -9 10 -66 0
83 -77 273 -141 63 -21 116 -37 119 -35 2 2 -6 7 -17 11 -18 5 -19 8 -7 21 19
18 35 18 42 -1 4 -8 19 -15 34 -15 16 0 32 -4 35 -10 3 -6 12 -10 18 -10 7 0
6 4 -3 10 -24 15 -2 12 30 -5 27 -14 30 -14 30 0 0 8 9 15 19 15 11 0 22 6 25
13 5 10 7 10 12 0 11 -25 24 -13 24 22 l0 35 58 1 57 1 -95 18 c-81 16 -221
50 -309 76 -18 5 -22 4 -16 -6 5 -9 4 -11 -4 -6 -6 4 -9 11 -7 15 3 4 -12 13
-32 20 -20 7 -59 23 -87 36 -27 13 -90 41 -139 64 -48 22 -93 38 -100 34 -6
-3 -8 -2 -4 2 5 5 -9 19 -30 31 -43 27 -42 27 -62 14z m205 -120 c3 -5 -1 -10
-9 -10 -9 0 -16 5 -16 10 0 6 4 10 9 10 6 0 13 -4 16 -10z m85 -14 c0 -3 -4
-8 -10 -11 -5 -3 -10 -1 -10 4 0 6 5 11 10 11 6 0 10 -2 10 -4z m60 -26 c13
-8 13 -10 -2 -10 -9 0 -20 5 -23 10 -8 13 5 13 25 0z m-72 -25 c-1 -5 -9 -9
-17 -7 -7 2 -18 -2 -22 -10 -6 -9 -9 -6 -9 10 0 19 5 23 25 20 14 -2 24 -7 23
-13z m152 -16 c0 -5 -9 -9 -20 -9 -13 0 -18 5 -14 14 6 15 34 11 34 -5z m100
-40 c0 -6 -4 -7 -10 -4 -5 3 -10 11 -10 16 0 6 5 7 10 4 6 -3 10 -11 10 -16z
m-320 -9 c0 -5 -7 -7 -15 -4 -8 4 -12 10 -9 15 6 11 24 2 24 -11z m41 -18 c-7
-2 -18 1 -23 6 -8 8 -4 9 13 5 13 -4 18 -8 10 -11z m434 -12 c-3 -5 -13 -10
-21 -10 -8 0 -12 5 -9 10 3 6 13 10 21 10 8 0 12 -4 9 -10z m-370 -11 c11 -17
2 -18 -30 -4 l-30 13 27 1 c15 1 30 -4 33 -10z"/>
<path d="M1289 693 c13 -10 43 -29 65 -41 34 -20 37 -20 16 -3 -14 11 -43 29
-65 41 -30 15 -34 16 -16 3z"/>
<path d="M1395 660 c-3 -6 1 -7 9 -4 18 7 21 14 7 14 -6 0 -13 -4 -16 -10z"/>
<path d="M3965 630 c-27 -16 -67 -39 -87 -50 -21 -11 -38 -23 -38 -26 0 -8
151 74 170 92 21 21 11 17 -45 -16z"/>
<path d="M1490 640 c-12 -8 -11 -10 8 -10 12 0 22 5 22 10 0 13 -11 13 -30 0z"/>
<path d="M1420 615 c0 -2 18 -14 40 -25 22 -11 40 -18 40 -15 0 2 -18 14 -40
25 -22 11 -40 18 -40 15z"/>
<path d="M3768 524 c-27 -13 -48 -27 -48 -29 0 -5 99 42 109 51 13 11 -20 0
-61 -22z"/>
<path d="M3190 488 c-47 -11 -132 -26 -190 -33 l-105 -14 100 6 c55 3 109 7
120 10 22 5 88 20 122 27 25 5 64 26 48 25 -5 -1 -48 -10 -95 -21z"/>
<path d="M2458 443 c6 -2 18 -2 25 0 6 3 1 5 -13 5 -14 0 -19 -2 -12 -5z"/>
<path d="M2518 433 c12 -2 32 -2 45 0 12 2 2 4 -23 4 -25 0 -35 -2 -22 -4z"/>
<path d="M2708 433 c-38 -2 -68 -8 -68 -13 0 -9 102 -6 130 4 8 3 38 7 65 9
l50 3 -55 0 c-30 0 -85 -1 -122 -3z"/>
<path d="M3548 423 c6 -2 18 -2 25 0 6 3 1 5 -13 5 -14 0 -19 -2 -12 -5z"/>
<path d="M3468 403 c7 -3 16 -2 19 1 4 3 -2 6 -13 5 -11 0 -14 -3 -6 -6z"/>
<path d="M2648 393 c7 -3 16 -2 19 1 4 3 -2 6 -13 5 -11 0 -14 -3 -6 -6z"/>
<path d="M1991 366 c7 -8 167 -46 186 -45 21 1 -11 11 -112 33 -76 17 -80 18
-74 12z"/>
<path d="M3268 343 c6 -2 18 -2 25 0 6 3 1 5 -13 5 -14 0 -19 -2 -12 -5z"/>
<path d="M3228 333 c7 -3 16 -2 19 1 4 3 -2 6 -13 5 -11 0 -14 -3 -6 -6z"/>
<path d="M3148 313 c7 -3 16 -2 19 1 4 3 -2 6 -13 5 -11 0 -14 -3 -6 -6z"/>
<path d="M2253 303 c9 -2 23 -2 30 0 6 3 -1 5 -18 5 -16 0 -22 -2 -12 -5z"/>
<path d="M3098 303 c6 -2 18 -2 25 0 6 3 1 5 -13 5 -14 0 -19 -2 -12 -5z"/>
<path d="M2497 273 c18 -2 50 -2 70 0 21 2 7 4 -32 4 -38 0 -55 -2 -38 -4z"/>
<path d="M2853 273 c9 -2 25 -2 35 0 9 3 1 5 -18 5 -19 0 -27 -2 -17 -5z"/>
<path d="M2643 263 c15 -2 39 -2 55 0 15 2 2 4 -28 4 -30 0 -43 -2 -27 -4z"/>
</g>
</svg>
