<?xml version="1.0" standalone="no"?>
<!DOCTYPE svg PUBLIC "-//W3C//DTD SVG 20010904//EN"
 "http://www.w3.org/TR/2001/REC-SVG-20010904/DTD/svg10.dtd">
<svg version="1.0" xmlns="http://www.w3.org/2000/svg"
 width="500.000000pt" height="500.000000pt" viewBox="0 0 500.000000 500.000000"
 preserveAspectRatio="xMidYMid meet">

<g transform="translate(0.000000,500.000000) scale(0.100000,-0.100000)"
fill="#000000" stroke="none">
<path d="M2413 4265 c-11 -8 -30 -30 -41 -48 -17 -30 -18 -38 -6 -72 7 -21 23
-52 34 -68 26 -34 22 -39 -45 -56 -74 -18 -151 -68 -207 -136 -55 -66 -64 -81
-73 -137 -5 -30 -10 -38 -26 -38 -12 0 -23 -8 -26 -18 -2 -10 -14 -22 -26 -27
-12 -6 -27 -21 -34 -35 -15 -29 -17 -121 -4 -167 10 -33 83 -113 104 -113 7 0
18 -21 25 -46 14 -51 106 -157 174 -200 22 -14 35 -29 32 -37 -3 -8 -38 -21
-79 -31 -62 -15 -83 -25 -125 -63 -28 -25 -53 -56 -56 -69 -7 -28 -10 -28 -44
-9 -14 8 -52 14 -86 15 -55 0 -64 -3 -97 -32 -21 -18 -46 -51 -58 -73 -22 -44
-22 -41 0 70 6 30 8 153 4 311 l-6 261 27 7 c15 4 32 4 38 0 8 -5 9 -79 5
-259 -8 -278 -4 -301 41 -269 23 16 23 19 20 165 l-3 149 38 0 38 0 -3 -149
c-2 -82 -1 -151 2 -154 3 -2 20 -7 38 -10 l33 -7 -7 105 -7 105 42 0 41 0 0
-55 c0 -30 3 -55 8 -55 4 0 29 11 56 25 27 14 55 25 63 25 24 0 13 15 -62 83
-58 53 -78 79 -87 112 -10 33 -26 53 -72 90 -65 53 -86 92 -86 160 0 26 -3 44
-7 42 -5 -3 -26 -1 -48 3 l-40 8 48 1 c44 1 47 3 47 29 0 39 31 84 83 122 38
27 48 41 57 80 8 34 27 65 63 106 l52 57 -35 -6 c-19 -4 -86 -33 -149 -65
-128 -64 -275 -179 -347 -271 -66 -84 -138 -215 -173 -315 -32 -91 -31 -105 7
-106 34 0 85 -35 98 -66 19 -46 19 -302 0 -347 -14 -35 -48 -62 -90 -73 -36
-9 -33 11 4 26 17 7 42 26 55 42 24 28 25 35 25 172 0 115 -3 146 -16 165 -18
25 -87 60 -119 61 -45 1 -47 12 -16 108 122 372 412 637 806 737 183 47 172
43 154 60 -12 12 -25 12 -89 1 -131 -23 -203 -45 -300 -92 -239 -115 -418
-279 -540 -494 -39 -69 -68 -144 -101 -262 -12 -42 -17 -48 -40 -48 l-27 0 44
131 c53 156 116 282 156 312 16 12 47 51 69 87 23 36 61 81 86 100 25 19 75
58 112 87 128 101 320 185 508 222 85 16 88 18 91 45 l4 29 -59 -6 c-85 -9
-221 -52 -347 -108 -117 -53 -195 -102 -287 -180 l-56 -48 -13 42 c-31 105
-78 165 -163 208 -181 93 -404 -70 -376 -274 4 -34 21 -82 41 -120 31 -56 41
-65 104 -97 51 -25 82 -34 121 -35 29 0 53 -3 53 -6 0 -4 -20 -49 -44 -100
-46 -96 -100 -264 -91 -279 3 -5 -14 -18 -37 -28 -86 -39 -88 -44 -88 -206 0
-141 0 -143 28 -178 15 -20 38 -42 52 -50 23 -13 39 -59 53 -156 1 -8 -20 -21
-50 -32 -69 -24 -106 -52 -143 -106 -67 -97 -77 -183 -31 -279 52 -111 153
-175 273 -175 47 0 131 35 186 76 18 14 36 24 41 22 5 -2 36 -28 69 -59 l60
-56 -121 -7 c-67 -3 -225 -6 -351 -6 -126 1 -231 -1 -233 -4 -2 -2 5 -22 16
-45 20 -39 21 -55 21 -413 -1 -299 -4 -381 -15 -413 -8 -22 -15 -43 -15 -46 0
-3 126 -5 281 -4 321 2 291 11 328 -98 11 -32 30 -76 42 -98 l23 -39 874 2
874 3 39 68 c21 37 46 91 56 119 l18 50 109 -6 c60 -4 188 -4 283 0 l173 7 0
422 c0 285 4 432 11 454 6 18 9 34 6 37 -3 3 -172 6 -376 6 l-371 2 68 65 c38
36 83 83 99 105 38 47 56 44 109 -20 50 -62 110 -104 147 -104 26 0 46 16 124
98 52 53 96 107 99 120 7 26 -10 54 -80 135 -73 83 -116 110 -166 105 -33 -3
-39 -1 -34 12 20 48 44 124 55 175 11 49 18 60 50 80 75 48 79 60 79 227 0
148 0 149 -26 173 -14 13 -41 29 -60 35 -27 9 -34 17 -34 38 0 45 -50 192
-100 297 -86 177 -258 364 -461 501 -73 49 -222 118 -333 153 -89 29 -220 53
-242 44 -5 -2 -17 8 -24 23 -27 50 -120 72 -167 39z m111 -67 c29 -41 13 -82
-36 -93 -21 -5 -33 -1 -52 19 -31 30 -33 49 -6 76 27 27 75 26 94 -2z m186
-67 c183 -41 296 -85 424 -168 260 -168 447 -403 520 -653 13 -47 28 -93 31
-102 6 -15 2 -18 -24 -18 -20 0 -31 5 -31 14 0 30 -53 183 -87 250 -67 136
-155 247 -268 343 -189 158 -341 235 -573 287 -86 19 -104 20 -114 9 -17 -20
-4 -27 107 -53 238 -56 429 -162 600 -334 89 -89 121 -130 166 -211 31 -55 68
-138 83 -183 14 -46 30 -92 36 -101 8 -16 1 -20 -56 -36 -36 -10 -79 -29 -95
-42 l-29 -25 0 -150 0 -150 28 -26 c15 -15 38 -35 52 -44 23 -16 24 -17 4 -17
-28 -1 -85 43 -106 82 -9 18 -17 47 -18 65 l0 32 -92 0 -91 0 20 -22 c49 -54
68 -127 54 -203 -8 -41 -17 -57 -52 -87 -24 -20 -40 -40 -37 -43 3 -4 44 -3
89 2 79 8 84 9 84 31 0 13 9 30 20 38 18 13 22 13 37 -7 18 -22 16 -39 -5 -39
-7 0 -20 -14 -29 -30 -16 -28 -21 -30 -72 -30 -70 0 -81 -5 -107 -46 -32 -53
-41 -43 -33 39 5 53 12 75 26 85 34 24 52 74 52 143 0 58 -4 72 -27 103 -51
66 -147 93 -222 62 -26 -11 -41 -13 -43 -6 -9 25 -84 111 -110 124 -15 8 -54
19 -87 25 -71 13 -88 26 -60 47 116 83 190 168 204 236 5 23 12 32 23 30 9 -1
33 18 55 44 37 46 38 50 41 135 4 80 2 89 -18 106 -12 10 -28 30 -36 46 -10
18 -22 27 -39 27 -22 0 -25 4 -25 35 0 100 -130 231 -270 273 -19 5 -47 13
-62 16 -35 8 -36 24 -3 36 14 5 33 25 42 45 9 19 21 35 27 35 6 0 49 -9 96
-19z m-1380 -50 c0 -14 10 -20 42 -25 25 -4 44 -3 48 3 10 17 50 -17 50 -43 0
-13 9 -31 19 -40 10 -10 22 -33 25 -52 4 -19 11 -34 16 -34 6 0 10 -13 10 -30
0 -20 -5 -30 -15 -30 -9 0 -15 -9 -15 -25 0 -14 -11 -37 -25 -51 -16 -16 -24
-32 -20 -43 8 -26 -12 -38 -77 -45 -35 -5 -58 -13 -62 -22 -7 -17 -56 -19 -56
-1 0 14 -73 39 -93 31 -15 -6 -42 20 -33 34 2 4 -4 21 -15 38 -10 16 -19 41
-19 56 0 20 -4 26 -15 22 -12 -5 -15 2 -15 30 0 30 4 36 21 36 18 0 19 3 9 15
-10 12 -8 22 9 55 11 22 20 44 19 48 -3 13 13 52 22 52 5 0 10 -6 12 -12 4
-10 10 -10 32 0 15 6 36 12 46 12 13 0 20 7 20 20 0 16 7 20 30 20 23 0 30 -5
30 -19z m1150 -38 c0 -20 -3 -24 -11 -16 -7 7 -9 19 -6 27 10 24 17 19 17 -11z
m75 -68 c88 -14 231 -119 261 -192 10 -24 14 -87 14 -235 0 -185 -2 -205 -21
-246 -29 -59 -111 -136 -183 -172 -50 -26 -71 -30 -136 -30 -42 0 -96 7 -121
15 -60 21 -170 105 -204 157 l-28 42 -5 223 -5 222 26 44 c48 82 158 156 260
176 42 9 64 8 142 -4z m-565 -190 c0 -8 -7 -15 -15 -15 -16 0 -20 12 -8 23 11
12 23 8 23 -8z m-183 -91 c8 -21 -13 -42 -28 -27 -13 13 -5 43 11 43 6 0 13
-7 17 -16z m81 -1 c-5 -26 -38 -29 -38 -4 0 15 6 21 21 21 14 0 19 -5 17 -17z
m192 -109 c0 -50 -4 -66 -16 -71 -28 -10 -50 30 -45 83 2 19 42 65 52 59 5 -4
9 -35 9 -71z m844 41 c18 -28 23 -169 6 -180 -6 -4 -10 9 -10 32 -1 32 -2 35
-11 20 -6 -11 -8 -32 -5 -48 4 -22 2 -29 -9 -29 -12 0 -15 20 -15 115 0 91 3
115 14 115 7 0 21 -11 30 -25z m-1119 -55 c4 -6 -19 -9 -62 -8 l-68 1 55 7
c30 4 58 7 62 8 4 1 10 -2 13 -8z m-131 -48 c15 -18 15 -20 -2 -35 -20 -19
-42 -7 -42 23 0 33 19 38 44 12z m126 -13 c0 -17 -4 -28 -10 -24 -5 3 -10 17
-10 31 0 13 5 24 10 24 6 0 10 -14 10 -31z m267 -67 c10 -6 15 -13 11 -17 -13
-13 -48 20 -47 45 0 24 1 24 9 3 5 -12 17 -26 27 -31z m-373 -459 c0 -249 -2
-453 -6 -453 -4 0 -17 30 -29 68 -19 58 -23 101 -30 332 -4 146 -8 320 -8 388
l-1 123 36 -3 37 -3 1 -452z m255 354 c8 -11 6 -18 -9 -32 -19 -17 -22 -17
-37 -3 -9 9 -13 24 -10 32 8 20 40 21 56 3z m-391 -80 c4 -20 -25 -34 -40 -19
-15 15 -1 44 19 40 10 -2 19 -11 21 -21z m508 -83 c-3 -8 -10 -12 -16 -9 -14
9 -12 42 3 48 14 5 21 -17 13 -39z m-626 -46 c50 -15 73 -37 58 -55 -48 -58
-277 -66 -335 -12 -30 29 -29 35 7 54 62 32 185 38 270 13z m2299 6 c15 -3 41
-16 57 -29 24 -19 27 -25 15 -39 -21 -25 -81 -37 -189 -37 -101 -1 -142 10
-171 45 -10 12 -8 18 13 31 60 40 165 51 275 29z m-1284 -101 c34 -3 78 0 98
5 38 11 46 6 25 -17 -11 -12 -9 -13 7 -7 18 5 18 4 -2 -13 -46 -39 -169 -36
-214 5 -27 25 -25 48 4 39 12 -4 49 -9 82 -12z m1192 -31 c95 4 120 2 116 -8
-22 -57 -313 -32 -313 27 0 4 17 1 38 -8 29 -12 63 -14 159 -11z m-2437 3 c68
-18 146 -18 230 0 69 15 86 12 56 -10 -20 -15 -140 -45 -180 -45 -29 0 -153
47 -162 61 -7 11 -9 12 56 -6z m1024 -54 c4 -28 17 -48 45 -74 52 -47 100 -61
202 -61 73 0 94 4 142 28 61 29 93 66 103 115 l6 30 37 -19 c20 -10 52 -34 71
-54 l34 -36 4 -273 3 -272 -38 -64 c-68 -113 -114 -130 -363 -133 -172 -1
-188 0 -235 21 -59 26 -95 58 -135 122 l-30 46 0 276 0 276 32 36 c26 31 89
73 109 75 4 0 9 -17 13 -39z m1586 16 c0 -19 -11 -29 -52 -48 -107 -50 -319
-17 -318 50 1 14 2 14 13 1 7 -8 17 -15 22 -15 6 -1 30 -7 55 -14 28 -8 72
-11 120 -7 109 7 119 10 136 34 19 28 24 28 24 -1z m-2336 -34 c-36 -26 -125
-46 -182 -40 -79 8 -152 37 -152 59 0 20 24 18 89 -9 24 -10 64 -14 132 -11
92 3 99 5 111 27 11 21 13 22 17 6 2 -10 -5 -25 -15 -32z m946 -3 c40 -7 98
-2 170 15 l25 7 -26 -24 c-14 -13 -24 -29 -22 -35 10 -29 -147 -32 -194 -3
-18 11 -33 23 -33 27 0 4 5 2 12 -5 24 -24 31 -11 7 15 -21 23 -22 25 -4 19
11 -4 40 -11 65 -16z m1390 -44 c0 -25 -97 -51 -190 -51 -68 0 -95 5 -135 24
-61 28 -46 38 26 17 86 -26 199 -17 297 23 1 1 2 -5 2 -13z m-2590 -15 c64
-15 147 -13 210 3 30 8 57 13 59 10 11 -11 -102 -48 -159 -51 -71 -5 -180 22
-188 46 -3 9 2 11 14 7 11 -3 39 -10 64 -15z m738 -32 c31 -15 48 -32 58 -55
17 -41 18 -68 3 -58 -7 4 -19 -3 -28 -15 -17 -22 -17 -22 -13 11 2 23 -3 41
-18 61 -44 55 -140 23 -140 -48 0 -41 17 -63 65 -81 39 -15 39 -15 6 -9 -40 6
-57 19 -83 60 -18 27 -19 28 -13 5 4 -14 18 -40 32 -57 20 -28 30 -33 66 -33
24 0 53 7 65 16 12 8 22 12 22 8 0 -4 7 1 16 12 15 18 15 17 2 -6 -36 -62
-160 -60 -198 3 -47 77 -31 150 41 185 54 27 62 27 117 1z m1142 -4 c94 -49
68 -211 -36 -231 -48 -9 -102 13 -124 49 -25 40 -17 48 12 12 30 -38 82 -59
111 -44 38 20 77 62 77 83 0 16 -5 13 -25 -16 -42 -61 -116 -58 -159 7 -10 16
-23 24 -32 21 -17 -7 -18 18 -3 62 21 62 113 91 179 57z m489 -31 c43 -4 92 0
140 10 41 9 76 14 79 12 2 -2 -17 -16 -42 -31 -62 -36 -177 -44 -251 -17 -27
9 -49 23 -47 30 1 6 -3 11 -9 10 -6 -2 -14 3 -16 9 -3 9 6 9 38 -2 23 -8 72
-18 108 -21z m-2365 5 c69 -13 132 -11 196 6 61 16 87 19 76 8 -8 -8 -13 -9
-41 -12 -8 0 -23 -11 -34 -23 -17 -17 -34 -22 -94 -24 -88 -3 -118 3 -110 22
3 10 -2 14 -19 14 -13 0 -33 7 -44 16 -19 15 -19 16 1 9 11 -3 42 -11 69 -16z
m716 -49 c17 -33 -4 -62 -43 -58 -25 2 -33 8 -35 26 -7 48 56 73 78 32z m1448
-42 c27 -27 0 -55 -39 -43 -19 6 -26 35 -12 48 10 11 38 8 51 -5z m-1958 -53
c14 -66 132 -309 184 -380 21 -27 59 -70 86 -95 51 -47 82 -113 44 -92 -11 6
-56 47 -101 92 -63 62 -85 92 -94 123 -18 68 -60 148 -99 192 -38 41 -53 76
-69 157 -8 48 -7 50 31 57 4 0 12 -24 18 -54z m150 25 c0 -22 -24 -32 -39 -17
-15 15 -14 34 2 40 20 7 37 -4 37 -23z m-247 -53 c10 -38 17 -71 15 -73 -2 -2
-17 0 -33 5 -25 6 -31 14 -37 52 -4 24 -10 54 -13 67 -5 21 -3 23 22 20 25 -3
30 -9 46 -71z m684 51 c-3 -8 -6 -5 -6 6 -1 11 2 17 5 13 3 -3 4 -12 1 -19z
m1543 7 c0 -23 -66 -189 -105 -266 -56 -110 -100 -173 -184 -261 l-80 -83 -1
33 c0 28 10 44 58 92 32 32 82 92 110 134 53 77 134 260 147 329 6 30 11 37
31 37 15 0 24 -6 24 -15z m110 8 c0 -14 -59 -188 -79 -233 -11 -25 -33 -60
-49 -77 -15 -18 -39 -56 -51 -85 -13 -29 -28 -63 -34 -76 -15 -32 -152 -177
-210 -224 -37 -29 -58 -38 -85 -37 l-37 0 25 17 c14 9 71 61 128 117 153 148
251 308 318 518 25 76 31 87 51 87 13 0 23 -3 23 -7z m-1710 -38 c-7 -8 -17
-15 -23 -15 -6 0 -2 7 9 15 25 19 30 19 14 0z m-157 -144 c4 -31 2 -51 -4 -51
-11 0 -22 26 -36 85 -6 22 -14 48 -18 58 -4 11 4 6 22 -12 23 -22 32 -42 36
-80z m-215 87 c16 -16 15 -43 -2 -57 -21 -17 -49 24 -35 51 11 21 20 23 37 6z
m367 -68 c0 -23 -4 -25 -46 -28 -36 -2 -48 1 -53 13 -8 22 2 38 20 31 8 -3 14
-1 14 5 0 6 15 9 33 7 27 -2 32 -7 32 -28z m1120 -5 c0 -17 -8 -20 -47 -23
-46 -3 -48 -2 -48 23 0 25 2 26 48 23 39 -3 47 -6 47 -23z m-1777 -31 c3 -24
72 -50 72 -28 0 27 30 13 53 -23 21 -34 57 -115 57 -128 0 -3 -6 -5 -14 -5 -8
0 -17 11 -20 25 -8 29 -75 94 -118 112 -42 18 -107 16 -144 -5 -47 -26 -88
-64 -101 -94 -8 -17 -20 -28 -33 -28 -19 0 -18 5 17 71 41 79 48 86 68 69 11
-9 19 -8 37 4 12 9 30 16 40 16 10 0 18 7 18 18 0 26 64 22 68 -4z m660 -78
c3 -25 1 -26 -46 -26 -53 0 -64 10 -52 45 16 46 92 32 98 -19z m1110 32 c7 -7
12 -22 12 -35 0 -17 -7 -23 -35 -29 -46 -8 -65 0 -65 30 0 39 60 62 88 34z
m-1348 -13 c23 -27 4 -46 -42 -43 -46 3 -57 17 -33 42 21 20 59 21 75 1z
m1564 -7 c15 -24 -13 -53 -43 -43 -21 6 -29 43 -14 59 12 12 45 2 57 -16z
m-2003 -8 c5 0 9 -11 9 -23 0 -16 9 -28 25 -35 27 -13 35 -58 13 -80 -9 -9 -7
-13 5 -18 17 -6 22 -39 11 -68 -4 -9 -23 -19 -45 -22 -29 -5 -39 -11 -39 -25
0 -27 -18 -24 -22 4 -2 18 -8 22 -36 19 -23 -1 -32 2 -32 13 0 8 7 15 15 15
12 0 15 14 15 65 0 49 -4 67 -15 71 -25 10 -17 34 10 34 16 0 25 6 25 16 0 11
-6 14 -22 8 -50 -15 -58 -33 -33 -80 17 -33 20 -84 5 -84 -5 0 -16 -12 -23
-27 l-14 -26 -13 37 c-13 40 -8 97 12 141 12 27 104 78 126 70 8 -3 18 -5 23
-5z m2489 -30 c21 -17 61 -59 88 -93 l49 -63 -37 -45 c-68 -81 -136 -149 -151
-149 -15 0 -199 180 -199 195 0 12 119 135 155 161 40 30 51 29 95 -6z m-2410
-8 c35 -36 55 -98 46 -147 -9 -47 -64 -109 -91 -103 -18 4 -17 6 7 16 45 18
62 55 50 105 -5 23 -10 55 -10 72 0 21 -10 38 -33 57 -25 21 -29 28 -15 28 9
0 30 -13 46 -28z m584 -48 c9 -8 16 -26 16 -40 0 -22 -4 -24 -50 -24 -50 0
-50 0 -50 33 0 19 3 37 7 40 12 13 62 7 77 -9z m1121 0 c9 -9 15 -26 13 -38
-2 -17 -11 -22 -50 -24 -47 -3 -48 -3 -48 27 0 46 52 68 85 35z m-1327 -32
c-4 -21 -44 -28 -63 -12 -17 14 -9 37 13 43 25 5 54 -12 50 -31z m1500 9 c4
-28 -17 -45 -35 -29 -14 11 -17 40 -6 52 14 14 38 0 41 -23z m-2158 -51 c0
-30 -4 -40 -16 -40 -11 0 8 -25 49 -67 l67 -68 73 0 c66 0 78 3 113 30 21 16
44 34 50 40 19 19 45 75 34 75 -5 0 -10 16 -10 35 0 32 2 35 30 35 28 0 30 -3
30 -35 0 -24 -5 -35 -15 -35 -9 0 -15 -9 -15 -21 0 -12 -14 -47 -31 -79 -31
-58 -59 -84 -59 -54 0 13 -2 13 -22 0 -12 -9 -30 -16 -40 -16 -11 0 -18 -8
-18 -20 0 -27 -60 -29 -67 -2 -5 23 -84 47 -95 29 -9 -15 -38 10 -38 34 0 11
-4 19 -8 19 -11 0 -52 74 -52 94 0 9 -4 16 -10 16 -5 0 -10 16 -10 35 0 32 2
35 30 35 28 0 30 -2 30 -40z m863 -41 c55 -25 73 -106 35 -154 -19 -25 -26
-27 -76 -23 -65 6 -92 31 -92 85 0 26 8 43 34 69 36 36 59 41 99 23z m1123 -5
c60 -29 83 -105 44 -144 -25 -25 -61 -34 -105 -26 -82 16 -89 131 -10 174 27
15 31 15 71 -4z m-1316 -206 c51 -44 53 -47 29 -48 -33 0 -90 38 -184 123 -69
62 -73 68 -62 91 12 25 12 25 87 -47 41 -40 100 -93 130 -119z m370 45 c0 -76
-3 -93 -15 -93 -12 0 -15 18 -15 102 0 82 -3 105 -17 122 -10 12 -3 8 15 -8
32 -29 32 -31 32 -123z m724 10 c-3 -86 -7 -109 -19 -111 -24 -5 -22 186 3
204 9 7 18 14 19 14 1 0 0 -48 -3 -107z m-606 -34 c3 -60 1 -67 -18 -72 -19
-5 -20 -1 -20 70 0 66 2 74 18 71 14 -3 18 -16 20 -69z m502 -4 c0 -60 -3 -75
-15 -75 -12 0 -15 15 -15 75 0 60 3 75 15 75 12 0 15 -15 15 -75z m-400 -5 c0
-53 -2 -60 -20 -60 -18 0 -20 7 -20 60 0 53 2 60 20 60 18 0 20 -7 20 -60z
m100 0 c0 -53 -2 -60 -20 -60 -18 0 -20 7 -20 60 0 53 2 60 20 60 18 0 20 -7
20 -60z m100 -5 c0 -58 -2 -65 -20 -65 -18 0 -20 7 -20 65 0 58 2 65 20 65 18
0 20 -7 20 -65z m110 36 c0 -57 -12 -91 -31 -91 -16 0 -19 8 -19 60 0 57 1 60
25 60 21 0 25 -5 25 -29z m-712 -57 c30 -8 29 -34 -2 -34 -35 0 -56 10 -56 26
0 15 21 18 58 8z m1072 -11 c0 11 8 17 25 17 39 0 34 -36 -6 -44 -52 -10 -57
-8 -51 21 5 25 6 25 18 8 13 -17 14 -17 14 -2z m-305 -102 c78 -36 105 -85
105 -192 l0 -69 -65 0 -65 0 0 59 c0 51 -3 62 -22 75 -29 21 -57 20 -80 -1
-16 -15 -18 -36 -18 -254 0 -264 1 -269 64 -269 46 0 61 22 61 88 l0 55 65 1
c61 1 65 0 64 -21 0 -13 -1 -49 -2 -82 -3 -76 -30 -117 -102 -154 -41 -21 -65
-27 -95 -24 -62 6 -129 41 -161 83 -28 36 -29 42 -34 176 -4 98 -9 141 -18
147 -10 6 -10 10 3 21 12 10 15 35 15 122 0 118 13 159 63 206 54 51 152 65
222 33z m450 0 c49 -22 68 -43 95 -103 19 -43 20 -66 20 -280 0 -128 -4 -247
-9 -265 -41 -141 -228 -185 -335 -79 -50 51 -57 88 -56 350 0 252 4 282 53
335 53 58 157 77 232 42z m-1983 -3 c-15 -15 -17 -330 -2 -358 8 -15 7 -17
-13 -12 -18 5 -20 3 -10 -9 8 -10 13 -61 15 -140 l3 -124 123 0 122 0 0 -30
c0 -16 -3 -47 -6 -67 l-7 -38 -186 0 -186 0 1 243 c1 133 5 299 8 368 5 101 3
129 -9 145 -8 10 -15 22 -15 27 0 4 39 7 87 7 68 0 84 -3 75 -12z m411 -282
c-2 -183 2 -306 8 -324 20 -57 112 -64 123 -10 9 44 13 597 4 612 -8 14 1 16
69 16 l78 0 -2 -191 c-1 -105 -5 -194 -8 -197 -3 -3 -3 -56 1 -116 8 -138 -4
-187 -55 -236 -71 -68 -177 -75 -265 -20 -81 52 -81 51 -84 415 -2 207 -7 324
-14 332 -8 10 5 13 68 13 l79 0 -2 -294z m512 184 c27 -60 49 -110 51 -110 1
0 23 50 49 110 l48 110 73 0 74 0 -14 -32 c-26 -59 -134 -292 -150 -322 -8
-17 -12 -35 -7 -40 4 -6 19 -40 33 -76 24 -60 100 -226 134 -292 l15 -28 -79
0 c-91 0 -78 -14 -143 150 l-37 95 -17 -39 c-9 -21 -34 -76 -55 -122 l-39 -84
-79 0 -79 0 50 98 c28 53 72 146 98 206 l48 108 -23 47 c-13 25 -40 88 -60
140 -21 52 -48 116 -62 143 l-24 48 73 0 73 0 49 -110z m1386 96 c-9 -10 -12
-69 -11 -193 1 -98 1 -269 1 -380 l-1 -203 -71 0 -72 0 7 40 c11 69 7 709 -4
730 -10 19 -7 20 76 20 74 0 85 -2 75 -14z m270 -200 c37 -115 71 -211 74
-215 3 -3 5 92 3 212 l-3 217 78 0 c75 0 77 -1 67 -21 -7 -13 -10 -81 -8 -193
2 -136 0 -172 -9 -169 -7 3 -13 0 -13 -6 0 -6 5 -11 10 -11 6 0 10 -72 10
-195 l0 -195 -69 0 -68 0 -55 173 c-31 94 -63 202 -73 240 -9 37 -19 67 -21
67 -2 0 -1 -108 3 -240 l6 -240 -73 0 -73 0 7 374 c5 271 4 381 -4 396 -11 20
-10 21 65 18 l77 -3 69 -209z m-1910 -677 c15 -15 18 -24 9 -34 -8 -9 -8 -15
0 -20 17 -10 11 -44 -9 -55 -11 -5 -33 -10 -50 -10 l-31 0 0 70 0 70 30 0 c17
0 39 -9 51 -21z m170 -8 c35 -36 36 -54 4 -86 -31 -32 -55 -32 -89 0 -33 30
-33 45 0 84 32 39 48 39 85 2z m159 14 c0 -8 -7 -15 -15 -15 -12 0 -15 -13
-15 -56 0 -40 -3 -54 -12 -51 -8 2 -13 23 -13 53 0 43 -3 49 -22 52 -23 3 -29
13 -16 25 3 4 26 7 50 7 32 0 43 -4 43 -15z m140 0 c0 -8 -9 -15 -20 -15 -18
0 -20 -7 -20 -56 0 -40 -3 -54 -12 -51 -9 3 -12 21 -10 57 3 49 2 52 -17 47
-16 -4 -21 0 -21 14 0 16 7 19 50 19 38 0 50 -4 50 -15z m137 -7 c27 -25 29
-41 8 -58 -11 -9 -12 -16 -2 -30 19 -32 -1 -35 -30 -4 l-28 29 -3 -28 c-6 -47
-27 -24 -30 33 -2 29 -1 59 2 66 8 21 57 17 83 -8z m163 -44 c16 -37 30 -68
30 -70 0 -11 -29 -2 -34 11 -3 9 -18 15 -36 15 -20 0 -30 -5 -30 -15 0 -8 -7
-15 -15 -15 -8 0 -15 2 -15 5 0 16 54 135 61 135 5 0 22 -30 39 -66z m171 40
c46 -42 7 -114 -63 -114 l-38 0 0 71 0 72 41 -6 c22 -3 49 -13 60 -23z m94 -7
c9 -46 2 -100 -12 -105 -10 -3 -13 15 -13 67 0 74 15 95 25 38z m113 -7 c15
-21 30 -39 34 -40 3 0 4 19 1 41 -5 33 -3 41 8 37 10 -3 15 -25 17 -71 2 -37
0 -67 -4 -67 -3 0 -24 19 -45 43 l-38 42 -1 -42 c0 -24 -4 -43 -10 -43 -6 0
-10 30 -10 70 0 40 4 70 10 70 6 0 23 -18 38 -40z m220 28 c21 -21 13 -30 -18
-23 -19 4 -36 2 -45 -5 -20 -16 -19 -56 1 -64 24 -9 54 -7 54 4 0 6 -7 10 -15
10 -20 0 -19 16 1 24 22 8 34 -1 34 -28 0 -48 -48 -61 -94 -25 -33 26 -34 62
-1 94 26 27 64 32 83 13z m116 -44 c23 -9 20 -34 -3 -34 -22 0 -35 15 -26 30
7 12 8 12 29 4z m-1634 -19 c0 -10 -10 -15 -30 -15 -20 0 -30 5 -30 15 0 10
10 15 30 15 20 0 30 -5 30 -15z"/>
<path d="M2849 3900 c28 -33 56 -78 62 -100 7 -24 33 -61 67 -95 42 -44 55
-65 59 -96 l6 -39 60 0 60 0 -6 70 c-3 39 -2 72 4 75 5 4 9 -25 9 -69 l0 -76
63 -2 62 -1 -60 -6 -60 -6 0 -60 c0 -58 1 -60 27 -60 14 0 30 -3 34 -7 4 -5
-9 -8 -29 -8 -29 0 -36 -4 -40 -22 l-4 -23 -2 23 c-1 21 -5 22 -68 21 l-68 0
-35 -45 c-19 -24 -47 -51 -62 -59 -16 -9 -28 -22 -28 -30 0 -12 21 -15 113
-16 106 -1 109 -2 52 -10 -33 -5 -85 -8 -115 -7 l-55 3 -47 -59 c-26 -32 -60
-68 -76 -80 -16 -11 -29 -25 -28 -31 0 -8 56 -34 74 -35 2 0 1 14 -3 30 -6 27
-4 30 18 30 47 0 55 -8 50 -50 -5 -34 -1 -44 31 -82 l37 -42 72 -1 c40 0 86
-4 104 -9 29 -8 32 -6 36 20 4 27 4 27 6 -5 1 -32 2 -33 32 -27 17 3 62 6 99
6 l67 0 6 118 c3 64 7 179 9 254 2 75 7 140 11 144 4 4 17 -1 27 -12 18 -17
21 -34 21 -128 l1 -107 42 6 c22 4 43 9 45 11 2 1 -7 36 -19 76 -63 208 -254
446 -451 563 -85 50 -224 115 -247 115 -7 0 10 -27 37 -60z m232 -223 c-10 -9
-11 -8 -5 6 3 10 9 15 12 12 3 -3 0 -11 -7 -18z m249 -438 l0 -250 -32 3 -33
3 -5 248 -5 247 38 0 37 0 0 -251z m-110 -33 c0 -68 -3 -144 -6 -170 -6 -43
-9 -47 -33 -44 l-26 3 -3 168 -2 167 35 0 35 0 0 -124z m-122 -98 l-3 -113
-25 0 -25 0 -3 113 -3 112 31 0 31 0 -3 -112z m-98 33 c0 -10 -3 -46 -6 -80
-7 -59 -8 -61 -35 -61 l-29 0 0 80 0 80 35 0 c27 0 35 -4 35 -19z"/>
<path d="M3045 3548 c-2 -7 -5 -34 -7 -60 -3 -53 -8 -50 75 -52 l47 -2 0 63 0
63 -55 0 c-36 0 -57 -5 -60 -12z"/>
<path d="M1198 4011 c-56 -36 -72 -76 -66 -167 6 -97 51 -144 154 -163 37 -7
57 -6 84 5 41 18 86 58 106 96 19 37 15 125 -9 169 -48 90 -177 118 -269 60z
m80 -39 c4 -28 20 -29 24 -2 4 25 24 22 21 -2 -2 -12 4 -18 15 -18 36 0 57
-51 32 -76 -8 -8 -6 -15 5 -24 31 -26 3 -80 -42 -80 -16 0 -23 -6 -23 -19 0
-31 -19 -35 -26 -6 -5 22 -11 25 -30 21 -27 -7 -43 12 -23 28 19 15 13 125 -7
133 -21 8 -17 23 6 23 15 0 20 7 20 26 0 31 23 28 28 -4z m110 12 c30 -21 62
-86 62 -126 0 -18 -9 -48 -21 -67 -23 -38 -34 -37 -19 3 7 19 7 33 0 46 -6 11
-8 30 -5 43 9 33 -11 75 -40 89 -14 6 -25 15 -25 20 0 13 24 9 48 -8z m-182
-77 c17 -10 18 -50 2 -94 -15 -41 -23 -42 -37 -2 -14 41 -14 65 2 107 9 26 13
30 16 16 2 -10 9 -23 17 -27z"/>
<path d="M1280 3894 c0 -22 4 -25 28 -22 19 2 28 9 30 26 3 19 -1 22 -27 22
-27 0 -31 -4 -31 -26z"/>
<path d="M1280 3826 c0 -23 4 -26 36 -26 31 0 35 3 32 23 -2 17 -11 23 -35 25
-30 3 -33 1 -33 -22z"/>
<path d="M2420 3924 c0 -16 39 -44 61 -44 18 0 67 35 59 43 -3 2 -31 7 -62 9
-43 3 -58 1 -58 -8z"/>
<path d="M2274 3875 c-8 -21 4 -35 32 -35 19 0 24 5 24 25 0 20 -5 25 -25 25
-14 0 -28 -7 -31 -15z"/>
<path d="M2627 3876 c-3 -8 0 -20 8 -26 19 -16 57 -3 53 18 -4 22 -53 28 -61
8z"/>
<path d="M2365 3806 c-99 -47 -155 -140 -155 -257 0 -90 21 -141 81 -199 68
-66 92 -75 194 -75 85 0 93 2 135 31 120 84 163 198 125 329 -13 46 -28 69
-73 114 -64 64 -106 81 -198 81 -41 0 -74 -7 -109 -24z m238 -53 c67 -48 100
-103 105 -173 7 -92 -4 -126 -56 -182 -53 -57 -82 -74 -139 -83 -84 -12 -213
66 -249 152 -42 99 14 245 114 298 40 22 57 25 115 21 56 -3 76 -9 110 -33z"/>
<path d="M2422 3749 c-40 -12 -109 -79 -128 -125 -30 -72 -7 -160 57 -221 41
-38 77 -53 129 -53 55 0 89 15 138 63 60 59 80 147 48 220 -17 39 -70 95 -100
106 -39 15 -111 20 -144 10z m166 -84 c19 -21 32 -45 32 -61 0 -25 -3 -24 -50
27 -34 36 -50 48 -50 36 0 -9 4 -17 9 -17 17 0 41 -31 41 -52 0 -11 -8 -26
-17 -33 -16 -12 -16 -15 7 -33 21 -17 23 -23 12 -46 -6 -14 -23 -28 -37 -32
-16 -4 -25 -13 -25 -25 0 -11 -7 -19 -16 -19 -11 0 -15 6 -11 20 3 13 0 20 -9
20 -8 0 -14 -7 -14 -15 0 -8 -9 -15 -20 -15 -11 0 -20 7 -20 15 0 8 -9 15 -20
15 -13 0 -20 7 -20 19 0 10 9 21 20 24 17 4 20 14 20 65 0 51 -3 60 -20 65
-42 11 -7 77 41 77 24 0 29 -4 29 -25 0 -14 5 -25 10 -25 6 0 10 14 10 31 0
30 1 31 33 25 18 -3 46 -21 65 -41z"/>
<path d="M2407 3676 c-6 -15 1 -26 15 -26 11 0 10 27 -1 34 -5 3 -11 0 -14 -8z"/>
<path d="M2460 3595 c0 -20 5 -25 25 -25 29 0 45 28 24 41 -27 17 -49 10 -49
-16z"/>
<path d="M2460 3510 c0 -16 7 -20 30 -20 23 0 30 4 30 20 0 16 -7 20 -30 20
-23 0 -30 -4 -30 -20z"/>
<path d="M2191 3807 c-16 -16 -13 -47 5 -54 20 -7 45 22 38 42 -8 19 -30 25
-43 12z"/>
<path d="M2723 3794 c-3 -8 -1 -20 5 -26 16 -16 47 -5 50 20 3 18 -1 22 -23
22 -14 0 -28 -7 -32 -16z"/>
<path d="M2161 3336 c-2 -44 35 -90 116 -146 53 -37 87 -53 130 -61 82 -16
173 -6 220 22 64 39 129 98 149 135 17 30 17 36 4 44 -25 16 -59 11 -70 -9 -8
-16 -6 -23 11 -34 22 -16 12 -31 -11 -16 -8 5 -19 9 -25 9 -18 0 -88 -68 -81
-79 4 -6 2 -11 -4 -11 -6 0 -9 -4 -6 -9 14 -22 -28 -35 -107 -33 -86 3 -125
18 -134 53 -3 10 -10 19 -15 19 -5 0 -6 -5 -2 -12 4 -7 3 -8 -5 -4 -6 4 -9 11
-6 16 11 18 -29 50 -65 51 -19 0 -44 4 -55 9 -16 7 -13 9 15 7 28 -2 35 2 35
17 0 28 -30 44 -55 28 -26 -16 -28 -16 -33 11 -3 18 -5 16 -6 -7z"/>
<path d="M2380 3218 c1 -36 18 -42 106 -41 89 2 111 10 101 37 -5 13 -25 16
-107 16 -73 0 -100 -3 -100 -12z"/>
<path d="M1193 3093 c22 -22 173 -30 236 -13 72 19 30 30 -119 30 -126 0 -133
-1 -117 -17z"/>
<path d="M3490 3101 c0 -20 74 -33 169 -29 96 4 126 11 116 29 -8 12 -285 12
-285 0z"/>
<path d="M2128 2904 c-5 -4 -8 -130 -8 -281 0 -187 -3 -273 -11 -273 -18 0 1
-42 45 -97 63 -80 106 -93 309 -93 190 0 264 14 309 56 43 41 91 116 80 123
-6 4 -13 109 -18 248 l-7 241 -23 -10 c-29 -14 -32 -48 -4 -55 20 -5 20 -11
14 -237 l-6 -231 -38 -36 c-54 -50 -96 -61 -256 -66 -202 -7 -298 17 -339 87
-18 31 -21 58 -27 255 -4 141 -3 227 4 239 7 12 7 25 -1 40 -6 11 -12 38 -13
59 -2 22 -6 35 -10 31z"/>
<path d="M2207 2724 c-13 -13 -7 -52 9 -58 22 -9 46 13 42 38 -3 21 -37 34
-51 20z"/>
<path d="M2385 2716 c-46 -20 -93 -63 -123 -115 -36 -60 -38 -164 -5 -226 48
-92 125 -140 223 -139 95 1 178 52 222 137 31 61 29 162 -5 220 -34 58 -97
113 -144 126 -51 15 -131 13 -168 -3z m150 -37 c55 -15 120 -82 135 -139 36
-134 -58 -260 -195 -260 -96 0 -184 77 -193 169 -2 27 -1 66 2 86 13 68 116
154 186 155 14 0 43 -5 65 -11z"/>
<path d="M2430 2644 c-39 -16 -89 -59 -101 -86 -18 -43 -16 -117 4 -155 40
-76 148 -106 225 -63 138 77 91 295 -66 306 -26 2 -54 1 -62 -2z m37 -71 l7
-28 6 24 c8 34 30 39 30 7 0 -19 5 -26 20 -26 22 0 25 -12 10 -41 -8 -14 -7
-25 4 -40 11 -17 12 -27 4 -45 -6 -13 -17 -24 -25 -24 -7 0 -13 -10 -13 -22
-1 -22 -1 -23 -15 -4 -15 20 -15 20 -29 0 -14 -18 -15 -18 -21 -1 -4 9 -16 17
-26 17 -23 0 -26 25 -4 34 11 4 15 20 15 56 0 38 -4 50 -15 50 -8 0 -15 7 -15
15 0 8 6 15 14 15 7 0 16 9 19 20 7 29 25 25 34 -7z"/>
<path d="M2460 2504 c0 -10 7 -14 22 -12 32 5 35 28 4 28 -17 0 -26 -5 -26
-16z"/>
<path d="M2460 2439 c0 -16 5 -20 27 -17 17 2 29 10 31 21 3 13 -3 17 -27 17
-25 0 -31 -4 -31 -21z"/>
<path d="M2707 2724 c-13 -14 -7 -43 12 -53 23 -13 45 8 39 36 -3 18 -38 30
-51 17z"/>
<path d="M2192 2328 c-19 -19 -14 -46 13 -64 24 -16 27 -16 40 2 17 23 18 30
5 55 -12 21 -40 25 -58 7z"/>
<path d="M2722 2328 c-20 -26 -23 -55 -6 -62 20 -7 64 18 64 37 0 31 -39 47
-58 25z"/>
<path d="M1178 2943 c7 -3 16 -2 19 1 4 3 -2 6 -13 5 -11 0 -14 -3 -6 -6z"/>
<path d="M3001 2793 c-11 -10 -24 -32 -27 -50 -5 -27 -1 -37 24 -63 40 -39 63
-38 101 6 36 41 35 65 -5 102 -30 26 -64 28 -93 5z m73 -29 c21 -21 20 -37 -4
-59 -24 -22 -47 -14 -56 20 -11 45 28 71 60 39z"/>
<path d="M1252 2400 c7 -11 16 -20 19 -20 4 0 9 9 12 20 4 16 0 20 -19 20 -22
0 -23 -2 -12 -20z"/>
<path d="M1250 2322 c0 -28 2 -30 28 -23 17 5 27 14 27 27 0 13 -8 20 -27 22
-25 3 -28 0 -28 -26z"/>
<path d="M1250 2240 c0 -29 2 -31 33 -28 27 2 32 7 32 28 0 21 -5 26 -32 28
-31 3 -33 1 -33 -28z"/>
<path d="M3661 2306 l-64 -64 69 -76 69 -75 20 27 c11 15 41 50 67 78 l48 51
-32 23 c-19 12 -46 40 -63 61 -16 21 -34 39 -40 39 -6 0 -39 -29 -74 -64z m86
-19 c-2 -6 8 -21 22 -33 30 -26 23 -48 -22 -74 -25 -14 -28 -13 -57 15 -16 16
-30 34 -30 41 0 17 69 76 81 68 6 -3 8 -11 6 -17z"/>
<path d="M1106 2157 c3 -10 9 -15 12 -12 3 3 0 11 -7 18 -10 9 -11 8 -5 -6z"/>
<path d="M1876 2149 c-30 -35 -24 -51 22 -66 42 -15 76 -2 80 29 8 70 -55 93
-102 37z m72 -1 c21 -21 14 -38 -15 -38 -42 0 -60 15 -44 34 16 19 42 21 59 4z"/>
<path d="M3002 2157 c-25 -27 -28 -50 -8 -66 11 -9 13 -4 12 26 -1 32 2 38 22
41 34 5 55 -16 48 -50 -6 -30 8 -39 18 -12 11 28 6 50 -12 67 -26 23 -55 21
-80 -6z"/>
<path d="M2420 1520 c0 -5 7 -10 16 -10 8 0 12 5 9 10 -3 6 -10 10 -16 10 -5
0 -9 -4 -9 -10z"/>
<path d="M3035 1767 c-18 -14 -20 -29 -24 -138 -2 -67 0 -178 4 -246 6 -114 9
-125 30 -139 27 -18 71 -10 85 15 14 27 16 476 2 499 -13 20 -74 26 -97 9z"/>
<path d="M1790 986 c0 -11 9 -16 26 -16 31 0 28 23 -4 28 -15 2 -22 -2 -22
-12z"/>
<path d="M1790 935 c0 -9 9 -15 25 -15 16 0 25 6 25 15 0 9 -9 15 -25 15 -16
0 -25 -6 -25 -15z"/>
<path d="M1958 989 c-26 -15 -22 -48 7 -61 41 -19 75 28 43 60 -14 14 -27 15
-50 1z"/>
<path d="M2395 990 c-4 -7 -3 -16 3 -22 14 -14 47 -6 47 12 0 18 -40 26 -50
10z"/>
<path d="M2576 964 c-9 -22 -8 -24 9 -24 8 0 15 6 15 14 0 22 -17 28 -24 10z"/>
<path d="M2720 960 c0 -33 3 -40 19 -40 20 0 51 24 51 40 0 16 -31 40 -51 40
-16 0 -19 -7 -19 -40z"/>
<path d="M3592 4049 c-50 -25 -85 -68 -107 -128 -23 -65 -19 -86 22 -126 20
-19 41 -45 47 -58 19 -37 150 -50 211 -21 93 44 125 205 58 285 -56 66 -153
86 -231 48z m96 -47 c2 -13 11 -22 21 -22 10 0 25 -8 35 -19 14 -16 15 -20 2
-30 -12 -10 -19 -8 -37 10 l-22 22 -8 -21 c-5 -12 -11 -22 -15 -22 -3 0 -4 7
0 15 3 9 0 15 -9 15 -8 0 -15 -8 -15 -18 0 -12 18 -26 53 -43 46 -21 52 -28
55 -57 4 -38 -12 -62 -39 -62 -11 0 -19 -7 -19 -15 0 -8 -7 -15 -15 -15 -8 0
-15 7 -15 15 0 8 -8 15 -18 15 -23 0 -42 19 -42 42 0 22 26 24 34 3 8 -22 23
-18 31 8 l8 22 4 -23 c6 -29 37 -26 41 5 3 18 -4 24 -38 33 -47 13 -80 41 -80
70 0 21 33 60 50 60 6 0 10 9 10 21 0 27 24 19 28 -9z"/>
<path d="M3610 3671 c0 -5 5 -13 12 -17 19 -12 100 -4 128 12 l25 15 -30 -6
c-51 -8 -110 -9 -123 -1 -7 4 -12 3 -12 -3z"/>
<path d="M1097 3510 c6 -24 26 -21 31 3 2 11 -3 17 -16 17 -15 0 -19 -5 -15
-20z"/>
<path d="M3478 2065 c-21 -24 -38 -46 -38 -49 0 -3 43 -6 95 -6 l95 0 -55 50
c-30 28 -56 50 -58 50 -1 -1 -19 -20 -39 -45z"/>
<path d="M1035 2020 c-3 -5 1 -10 10 -10 9 0 13 5 10 10 -3 6 -8 10 -10 10 -2
0 -7 -4 -10 -10z"/>
<path d="M1475 2020 c-4 -6 5 -10 20 -10 15 0 24 4 20 10 -3 6 -12 10 -20 10
-8 0 -17 -4 -20 -10z"/>
<path d="M1226 895 l-16 -25 38 0 c22 0 60 3 85 6 41 6 45 8 34 25 -16 25 -43
24 -50 -1 -3 -11 -12 -20 -21 -20 -9 0 -21 9 -28 20 -17 26 -22 25 -42 -5z"/>
<path d="M3627 900 c-4 -16 0 -20 19 -20 16 0 24 6 24 17 0 9 -3 13 -7 10 -3
-4 -12 -2 -18 3 -9 8 -14 5 -18 -10z"/>
<path d="M3717 900 c-4 -17 0 -20 28 -20 28 0 32 3 28 20 -3 13 -14 20 -28 20
-14 0 -25 -7 -28 -20z"/>
</g>
</svg>
